<svg width="29" height="28" viewBox="0 0 29 28" fill="none" xmlns="http://www.w3.org/2000/svg">
<path d="M14.5378 23.4583L7.62111 27.625C7.31556 27.8194 6.99611 27.9028 6.66278 27.875C6.32945 27.8472 6.03778 27.7361 5.78778 27.5417C5.53778 27.3472 5.34334 27.1039 5.20445 26.8117C5.06556 26.5194 5.03778 26.1933 5.12111 25.8333L6.95445 17.9583L0.829446 12.6667C0.551669 12.4167 0.378335 12.1317 0.309446 11.8117C0.240557 11.4917 0.261113 11.1794 0.371113 10.875C0.482224 10.5694 0.648891 10.3194 0.871113 10.125C1.09334 9.93056 1.39889 9.80556 1.78778 9.75L9.87111 9.04167L12.9961 1.625C13.135 1.29167 13.3506 1.04167 13.6428 0.875C13.935 0.708333 14.2333 0.625 14.5378 0.625C14.8433 0.625 15.1417 0.708333 15.4328 0.875C15.7239 1.04167 15.9394 1.29167 16.0794 1.625L19.2044 9.04167L27.2878 9.75C27.6767 9.80556 27.9822 9.93056 28.2044 10.125C28.4267 10.3194 28.5933 10.5694 28.7044 10.875C28.8156 11.1806 28.8367 11.4933 28.7678 11.8133C28.6989 12.1333 28.525 12.4178 28.2461 12.6667L22.1211 17.9583L23.9544 25.8333C24.0378 26.1944 24.01 26.5211 23.8711 26.8133C23.7322 27.1056 23.5378 27.3483 23.2878 27.5417C23.0378 27.7361 22.7461 27.8472 22.4128 27.875C22.0794 27.9028 21.76 27.8194 21.4544 27.625L14.5378 23.4583Z" fill="#FFA800"/>
</svg>
